{
    "asset" : {
        "copyright" : "yvbbrjdr",
        "generator" : "Khronos glTF Blender I/O v1.1.46",
        "version" : "2.0"
    },
    "scene" : 0,
    "scenes" : [
        {
            "name" : "Scene",
            "nodes" : [
                1,
                2,
                3,
                4,
                5,
                6,
                7,
                8,
                9
            ]
        }
    ],
    "nodes" : [
        {
            "camera" : 0,
            "name" : "Camera_Orientation",
            "rotation" : [
                -0.7071067690849304,
                0,
                0,
                0.7071067690849304
            ]
        },
        {
            "children" : [
                0
            ],
            "name" : "Camera",
            "rotation" : [
                0.7071067690849304,
                0,
                0,
                0.7071067690849304
            ],
            "translation" : [
                0,
                2.7300000190734863,
                10.795999526977539
            ]
        },
        {
            "mesh" : 0,
            "name" : "Floor",
            "scale" : [
                2.7799999713897705,
                1,
                2.7960000038146973
            ]
        },
        {
            "mesh" : 1,
            "name" : "Ceiling",
            "scale" : [
                2.7799999713897705,
                1,
                2.7960000038146973
            ],
            "translation" : [
                0,
                5.48799991607666,
                0
            ]
        },
        {
            "mesh" : 2,
            "name" : "Back Wall",
            "rotation" : [
                0.7071067690849304,
                0,
                0,
                0.7071067690849304
            ],
            "scale" : [
                2.7799999713897705,
                1,
                2.74399995803833
            ],
            "translation" : [
                0,
                2.74399995803833,
                -2.7960000038146973
            ]
        },
        {
            "mesh" : 3,
            "name" : "Right Wall",
            "rotation" : [
                0,
                0,
                -0.7071067690849304,
                0.7071067690849304
            ],
            "scale" : [
                2.74399995803833,
                1,
                2.7960000038146973
            ],
            "translation" : [
                2.7799999713897705,
                2.74399995803833,
                0
            ]
        },
        {
            "mesh" : 4,
            "name" : "Left Wall",
            "rotation" : [
                0,
                0,
                -0.7071067690849304,
                0.7071067690849304
            ],
            "scale" : [
                2.74399995803833,
                1,
                2.7960000038146973
            ],
            "translation" : [
                -2.7799999713897705,
                2.74399995803833,
                0
            ]
        },
        {
            "mesh" : 5,
            "name" : "Tall Block",
            "rotation" : [
                0,
                0.14983215928077698,
                0,
                0.9887114763259888
            ],
            "scale" : [
                0.824999988079071,
                1.649999976158142,
                0.824999988079071
            ],
            "translation" : [
                -0.8999999761581421,
                1.649999976158142,
                -0.7139999866485596
            ]
        },
        {
            "mesh" : 6,
            "name" : "Short Block",
            "rotation" : [
                0,
                -0.14449243247509003,
                0,
                0.9895058870315552
            ],
            "scale" : [
                0.824999988079071,
                0.824999988079071,
                0.824999988079071
            ],
            "translation" : [
                0.9300000071525574,
                0.824999988079071,
                1.1059999465942383
            ]
        },
        {
            "mesh" : 7,
            "name" : "Light",
            "rotation" : [
                1,
                0,
                0,
                -4.371138828673793e-08
            ],
            "scale" : [
                0.6499999761581421,
                1,
                0.5249999761581421
            ],
            "translation" : [
                0,
                5.486999988555908,
                0
            ]
        }
    ],
    "cameras" : [
        {
            "name" : "Camera",
            "perspective" : {
                "yfov" : 0.6911112070083618,
                "zfar" : 1000,
                "znear" : 0.10000000149011612
            },
            "type" : "perspective"
        }
    ],
    "materials" : [
        {
            "doubleSided" : true,
            "emissiveFactor" : [
                0,
                0,
                0
            ],
            "name" : "White",
            "pbrMetallicRoughness" : {
                "baseColorFactor" : [
                    0.4851500391960144,
                    0.46207693219184875,
                    0.4178851246833801,
                    1
                ],
                "metallicFactor" : 0,
                "roughnessFactor" : 1
            }
        },
        {
            "doubleSided" : true,
            "emissiveFactor" : [
                0,
                0,
                0
            ],
            "name" : "Green",
            "pbrMetallicRoughness" : {
                "baseColorFactor" : [
                    0.0176419485360384,
                    0.1714411824941635,
                    0.008568134158849716,
                    1
                ],
                "metallicFactor" : 0,
                "roughnessFactor" : 1
            }
        },
        {
            "doubleSided" : true,
            "emissiveFactor" : [
                0,
                0,
                0
            ],
            "name" : "Red",
            "pbrMetallicRoughness" : {
                "baseColorFactor" : [
                    0.3564002811908722,
                    0.005605338606983423,
                    0.004024725407361984,
                    1
                ],
                "metallicFactor" : 0,
                "roughnessFactor" : 1
            }
        },
        {
            "doubleSided" : true,
            "emissiveFactor" : [
                0,
                0,
                0
            ],
            "name" : "Mirror",
            "pbrMetallicRoughness" : {
                "baseColorFactor" : [
                    1,
                    1,
                    1,
                    1
                ],
                "metallicFactor" : 1,
                "roughnessFactor" : 0
            }
        },
        {
            "doubleSided" : true,
            "emissiveFactor" : [
                0,
                0,
                0
            ],
            "name" : "Glass",
            "pbrMetallicRoughness" : {
                "baseColorFactor" : [
                    1,
                    1,
                    1,
                    1
                ],
                "metallicFactor" : 0.20000000298023224,
                "roughnessFactor" : 0
            }
        },
        {
            "doubleSided" : true,
            "emissiveFactor" : [
                50,
                50,
                50
            ],
            "name" : "Light",
            "pbrMetallicRoughness" : {
                "baseColorFactor" : [
                    1,
                    1,
                    1,
                    1
                ],
                "metallicFactor" : 0,
                "roughnessFactor" : 1
            }
        }
    ],
    "meshes" : [
        {
            "name" : "Plane",
            "primitives" : [
                {
                    "attributes" : {
                        "POSITION" : 0,
                        "NORMAL" : 1
                    },
                    "indices" : 2,
                    "material" : 0
                }
            ]
        },
        {
            "name" : "Plane.001",
            "primitives" : [
                {
                    "attributes" : {
                        "POSITION" : 3,
                        "NORMAL" : 4
                    },
                    "indices" : 2,
                    "material" : 0
                }
            ]
        },
        {
            "name" : "Plane.002",
            "primitives" : [
                {
                    "attributes" : {
                        "POSITION" : 5,
                        "NORMAL" : 6
                    },
                    "indices" : 2,
                    "material" : 0
                }
            ]
        },
        {
            "name" : "Plane.003",
            "primitives" : [
                {
                    "attributes" : {
                        "POSITION" : 7,
                        "NORMAL" : 8
                    },
                    "indices" : 2,
                    "material" : 1
                }
            ]
        },
        {
            "name" : "Plane.004",
            "primitives" : [
                {
                    "attributes" : {
                        "POSITION" : 9,
                        "NORMAL" : 10
                    },
                    "indices" : 2,
                    "material" : 2
                }
            ]
        },
        {
            "name" : "Cube.001",
            "primitives" : [
                {
                    "attributes" : {
                        "POSITION" : 11,
                        "NORMAL" : 12
                    },
                    "indices" : 13,
                    "material" : 3
                }
            ]
        },
        {
            "name" : "Cube.002",
            "primitives" : [
                {
                    "attributes" : {
                        "POSITION" : 14,
                        "NORMAL" : 15
                    },
                    "indices" : 13,
                    "material" : 4
                }
            ]
        },
        {
            "name" : "Plane.005",
            "primitives" : [
                {
                    "attributes" : {
                        "POSITION" : 16,
                        "NORMAL" : 17
                    },
                    "indices" : 2,
                    "material" : 5
                }
            ]
        }
    ],
    "accessors" : [
        {
            "bufferView" : 0,
            "componentType" : 5126,
            "count" : 4,
            "max" : [
                1,
                0,
                1
            ],
            "min" : [
                -1,
                0,
                -1
            ],
            "type" : "VEC3"
        },
        {
            "bufferView" : 1,
            "componentType" : 5126,
            "count" : 4,
            "type" : "VEC3"
        },
        {
            "bufferView" : 2,
            "componentType" : 5123,
            "count" : 6,
            "type" : "SCALAR"
        },
        {
            "bufferView" : 3,
            "componentType" : 5126,
            "count" : 4,
            "max" : [
                1,
                0,
                1
            ],
            "min" : [
                -1,
                0,
                -1
            ],
            "type" : "VEC3"
        },
        {
            "bufferView" : 4,
            "componentType" : 5126,
            "count" : 4,
            "type" : "VEC3"
        },
        {
            "bufferView" : 5,
            "componentType" : 5126,
            "count" : 4,
            "max" : [
                1,
                0,
                1
            ],
            "min" : [
                -1,
                0,
                -1
            ],
            "type" : "VEC3"
        },
        {
            "bufferView" : 6,
            "componentType" : 5126,
            "count" : 4,
            "type" : "VEC3"
        },
        {
            "bufferView" : 7,
            "componentType" : 5126,
            "count" : 4,
            "max" : [
                1,
                0,
                1
            ],
            "min" : [
                -1,
                0,
                -1
            ],
            "type" : "VEC3"
        },
        {
            "bufferView" : 8,
            "componentType" : 5126,
            "count" : 4,
            "type" : "VEC3"
        },
        {
            "bufferView" : 9,
            "componentType" : 5126,
            "count" : 4,
            "max" : [
                1,
                0,
                1
            ],
            "min" : [
                -1,
                0,
                -1
            ],
            "type" : "VEC3"
        },
        {
            "bufferView" : 10,
            "componentType" : 5126,
            "count" : 4,
            "type" : "VEC3"
        },
        {
            "bufferView" : 11,
            "componentType" : 5126,
            "count" : 24,
            "max" : [
                1,
                1,
                1
            ],
            "min" : [
                -1,
                -1,
                -1
            ],
            "type" : "VEC3"
        },
        {
            "bufferView" : 12,
            "componentType" : 5126,
            "count" : 24,
            "type" : "VEC3"
        },
        {
            "bufferView" : 13,
            "componentType" : 5123,
            "count" : 36,
            "type" : "SCALAR"
        },
        {
            "bufferView" : 14,
            "componentType" : 5126,
            "count" : 24,
            "max" : [
                1,
                1,
                1
            ],
            "min" : [
                -1,
                -1,
                -1
            ],
            "type" : "VEC3"
        },
        {
            "bufferView" : 15,
            "componentType" : 5126,
            "count" : 24,
            "type" : "VEC3"
        },
        {
            "bufferView" : 16,
            "componentType" : 5126,
            "count" : 4,
            "max" : [
                1,
                0,
                1
            ],
            "min" : [
                -1,
                0,
                -1
            ],
            "type" : "VEC3"
        },
        {
            "bufferView" : 17,
            "componentType" : 5126,
            "count" : 4,
            "type" : "VEC3"
        }
    ],
    "bufferViews" : [
        {
            "buffer" : 0,
            "byteLength" : 48,
            "byteOffset" : 0
        },
        {
            "buffer" : 0,
            "byteLength" : 48,
            "byteOffset" : 48
        },
        {
            "buffer" : 0,
            "byteLength" : 12,
            "byteOffset" : 96
        },
        {
            "buffer" : 0,
            "byteLength" : 48,
            "byteOffset" : 108
        },
        {
            "buffer" : 0,
            "byteLength" : 48,
            "byteOffset" : 156
        },
        {
            "buffer" : 0,
            "byteLength" : 48,
            "byteOffset" : 204
        },
        {
            "buffer" : 0,
            "byteLength" : 48,
            "byteOffset" : 252
        },
        {
            "buffer" : 0,
            "byteLength" : 48,
            "byteOffset" : 300
        },
        {
            "buffer" : 0,
            "byteLength" : 48,
            "byteOffset" : 348
        },
        {
            "buffer" : 0,
            "byteLength" : 48,
            "byteOffset" : 396
        },
        {
            "buffer" : 0,
            "byteLength" : 48,
            "byteOffset" : 444
        },
        {
            "buffer" : 0,
            "byteLength" : 288,
            "byteOffset" : 492
        },
        {
            "buffer" : 0,
            "byteLength" : 288,
            "byteOffset" : 780
        },
        {
            "buffer" : 0,
            "byteLength" : 72,
            "byteOffset" : 1068
        },
        {
            "buffer" : 0,
            "byteLength" : 288,
            "byteOffset" : 1140
        },
        {
            "buffer" : 0,
            "byteLength" : 288,
            "byteOffset" : 1428
        },
        {
            "buffer" : 0,
            "byteLength" : 48,
            "byteOffset" : 1716
        },
        {
            "buffer" : 0,
            "byteLength" : 48,
            "byteOffset" : 1764
        }
    ],
    "buffers" : [
        {
            "byteLength" : 1812,
            "uri" : "data:application/octet-stream;base64,"
        }
    ]
}
